<?xml version="1.0"?>
<svg xmlns="http://www.w3.org/2000/svg" height="512px" viewBox="0 0 512 512" width="512px"><g><g><path d="m398.08 96.17a140.023 140.023 0 0 0 -269.09 35.12 96.009 96.009 0 0 0 -94.86 158.54c.44.48.89.95 1.3 1.36a95.286 95.286 0 0 0 68.57 28.81h88v96h-34.38a24 24 0 1 0 0 16h42.38a8 8 0 0 0 8-8v-104h40v137.38a24 24 0 1 0 16 0v-137.38h40v160a8 8 0 0 0 8 8h42.38a24 24 0 1 0 0-16h-34.38v-152h72a112.014 112.014 0 0 0 112-112c0-59.61-47.02-108.66-105.92-111.83zm-263.08 335.83a8 8 0 1 1 8-8 8.011 8.011 0 0 1 -8 8zm242 40a8 8 0 1 1 -8 8 8.011 8.011 0 0 1 8-8zm-121 16a8 8 0 1 1 8-8 8.011 8.011 0 0 1 -8 8zm202.46-210.73a95.523 95.523 0 0 1 -66.46 26.73h-288a79.47 79.47 0 0 1 -57.2-24.07c-.32-.31-.63-.64-.98-1.02a80.012 80.012 0 0 1 87.31-129.43 8.006 8.006 0 0 0 11-7.06 124.016 124.016 0 0 1 240.81-35.75 8 8 0 0 0 7.5 5.34 96.2 96.2 0 0 1 95.56 95.99 95.182 95.182 0 0 1 -29.54 69.27z" data-original="#000000" class="active-path" data-old_color="#000000" fill="#2B7A78"/><path d="m168 272h-64a8 8 0 0 0 0 16h64a8 8 0 0 0 0-16z" data-original="#000000" class="active-path" data-old_color="#000000" fill="#2B7A78"/><path d="m200 272h-8a8 8 0 0 0 0 16h8a8 8 0 0 0 0-16z" data-original="#000000" class="active-path" data-old_color="#000000" fill="#2B7A78"/></g></g> </svg>
