<?xml version="1.0"?>
<svg xmlns="http://www.w3.org/2000/svg" height="512px" viewBox="0 -27 496 495" width="512px"><g><g fill="#231f20"><path d="m456 .5h-416c-22.082031.027344-39.9726562 17.917969-40 40v272c.0273438 22.082031 17.917969 39.972656 40 40h157.753906l-12 48h-41.753906c-4.417969 0-8 3.582031-8 8v24c0 4.417969 3.582031 8 8 8h208c4.417969 0 8-3.582031 8-8v-24c0-4.417969-3.582031-8-8-8h-41.753906l-12-48h157.753906c22.082031-.027344 39.972656-17.917969 40-40v-272c-.027344-22.082031-17.917969-39.972656-40-40zm-440 40c0-13.253906 10.746094-24 24-24h416c13.253906 0 24 10.746094 24 24v240h-464zm328 384h-192v-8h192zm-50.246094-24h-91.507812l12-48h67.507812zm186.246094-88c0 13.253906-10.746094 24-24 24h-416c-13.253906 0-24-10.746094-24-24v-16h464zm0 0" data-original="#231F20" class="active-path" data-old_color="#231F20" fill="#2B7A78"/><path d="m120 40.5h-72c-4.417969 0-8 3.582031-8 8s3.582031 8 8 8h72c4.417969 0 8-3.582031 8-8s-3.582031-8-8-8zm0 0" data-original="#231F20" class="active-path" data-old_color="#231F20" fill="#2B7A78"/><path d="m152 40.5h-8c-4.417969 0-8 3.582031-8 8s3.582031 8 8 8h8c4.417969 0 8-3.582031 8-8s-3.582031-8-8-8zm0 0" data-original="#231F20" class="active-path" data-old_color="#231F20" fill="#2B7A78"/></g></g> </svg>
