<?xml version="1.0"?>
<svg xmlns="http://www.w3.org/2000/svg" id="Capa_1" enable-background="new 0 0 512.001 512.001" height="512px" viewBox="0 0 512.001 512.001" width="512px"><g><path d="m121.493 93.376 24.478-23.859c4.089-3.985 5.561-9.946 3.796-15.376-1.764-5.431-6.458-9.388-12.108-10.209l-33.826-4.916-15.134-30.655c-2.528-5.12-7.743-8.361-13.452-8.361-5.71.001-10.924 3.242-13.45 8.362l-15.126 30.654-33.828 4.916c-5.65.82-10.345 4.778-12.108 10.209-1.765 5.43-.293 11.391 3.796 15.376l24.477 23.859-5.78 33.691c-.965 5.628 1.348 11.315 5.968 14.671 2.613 1.899 5.708 2.865 8.818 2.865 2.387 0 4.784-.569 6.979-1.724l30.256-15.908 30.26 15.909c2.195 1.153 4.592 1.723 6.979 1.723h.051c8.271-.016 14.971-6.726 14.971-15 0-1.151-.13-2.273-.375-3.351zm-26.587-15.977c-3.536 3.446-5.149 8.411-4.314 13.277l1.975 11.507-10.337-5.435c-2.185-1.148-4.583-1.723-6.98-1.723s-4.796.574-6.98 1.724l-10.332 5.432 1.974-11.505c.835-4.866-.778-9.831-4.314-13.277l-8.36-8.149 11.556-1.68c4.886-.71 9.109-3.778 11.294-8.206l5.167-10.471 5.17 10.473c2.185 4.427 6.408 7.494 11.293 8.204l11.552 1.679z" data-original="#000000" class="active-path" data-old_color="#000000" fill="#3AAFA9"/><path d="m511.266 54.141c-1.764-5.431-6.458-9.388-12.108-10.209l-33.826-4.916-15.133-30.655c-2.528-5.12-7.743-8.361-13.452-8.361-5.71.001-10.924 3.242-13.45 8.362l-15.126 30.653-33.828 4.916c-5.65.82-10.345 4.778-12.108 10.209-1.765 5.43-.293 11.391 3.796 15.376l24.478 23.859-5.78 33.691c-.965 5.628 1.348 11.315 5.968 14.671 2.613 1.899 5.708 2.865 8.818 2.865 2.387 0 4.784-.569 6.979-1.724l30.256-15.908 30.26 15.909c2.195 1.153 4.592 1.723 6.978 1.723h.051c8.271-.016 14.971-6.726 14.971-15 0-1.151-.13-2.273-.375-3.351l-5.641-32.877 24.477-23.859c4.088-3.983 5.56-9.944 3.795-15.374zm-54.86 23.258c-3.536 3.446-5.149 8.411-4.315 13.277l1.975 11.507-10.337-5.435c-2.186-1.148-4.583-1.723-6.98-1.723s-4.796.574-6.98 1.724l-10.332 5.432 1.974-11.505c.835-4.866-.778-9.831-4.315-13.277l-8.36-8.149 11.556-1.68c4.886-.71 9.109-3.778 11.294-8.206l5.167-10.471 5.17 10.473c2.185 4.427 6.408 7.494 11.293 8.204l11.552 1.679z" data-original="#000000" class="active-path" data-old_color="#000000" fill="#3AAFA9"/><path d="m209.758 93.377-5.78 33.69c-.965 5.627 1.348 11.315 5.968 14.671 4.619 3.357 10.74 3.801 15.797 1.142l30.257-15.908 30.258 15.908c2.195 1.154 4.591 1.724 6.978 1.724h.047c8.272-.013 14.975-6.724 14.975-15 0-1.151-.13-2.273-.375-3.351l-5.641-32.877 24.477-23.859c4.088-3.985 5.559-9.946 3.795-15.377-1.764-5.43-6.458-9.387-12.108-10.208l-33.823-4.916-15.132-30.654c-2.527-5.12-7.742-8.362-13.452-8.362-5.709 0-10.924 3.242-13.45 8.362l-15.127 30.653-33.831 4.916c-5.65.82-10.345 4.778-12.108 10.209-1.765 5.43-.293 11.392 3.796 15.376zm29.782-25.807c4.886-.71 9.109-3.778 11.294-8.206l5.167-10.471 5.17 10.473c2.185 4.426 6.407 7.494 11.293 8.204l11.552 1.679-8.361 8.15c-3.535 3.446-5.148 8.411-4.314 13.277l1.974 11.506-10.334-5.433c-2.186-1.149-4.583-1.724-6.98-1.724s-4.795.574-6.98 1.724l-10.334 5.433 1.974-11.506c.835-4.866-.778-9.832-4.314-13.277l-8.36-8.149z" data-original="#000000" class="active-path" data-old_color="#000000" fill="#3AAFA9"/><path d="m307.899 350.254c21.463-15.92 35.4-41.439 35.4-70.154 0-48.138-39.162-87.3-87.299-87.3-48.138 0-87.301 39.162-87.301 87.3 0 28.715 13.939 54.234 35.401 70.154-35.353 18.693-59.501 55.85-59.501 98.546v8.033c0 30.419 24.747 55.167 55.166 55.167h112.467c30.419 0 55.166-24.748 55.166-55.167v-8.033c.001-42.696-24.148-79.852-59.499-98.546zm-109.199-70.154c0-31.596 25.705-57.3 57.301-57.3 31.595 0 57.299 25.704 57.299 57.3s-25.705 57.301-57.3 57.301-57.3-25.705-57.3-57.301zm93.103 95.619-35.803 35.802-35.802-35.803c10.812-5.318 22.961-8.317 35.802-8.317s24.991 3 35.803 8.318zm-117.203 81.114v-8.033c0-21.136 8.102-40.412 21.357-54.897l45.043 45.044v43.053h-41.234c-13.877 0-25.166-11.29-25.166-25.167zm162.799 0c0 13.877-11.289 25.167-25.166 25.167h-41.233v-43.054l45.043-45.042c13.254 14.485 21.355 33.761 21.355 54.896v8.033z" data-original="#000000" class="active-path" data-old_color="#000000" fill="#3AAFA9"/></g> </svg>
